<svg xmlns="http://www.w3.org/2000/svg" xmlns:xlink="http://www.w3.org/1999/xlink" width="500" zoomAndPan="magnify" viewBox="0 0 375 374.999991" height="500" preserveAspectRatio="xMidYMid meet" version="1.0"><defs><g/><clipPath id="88adfaa7f6"><path d="M 51 63 L 312 63 L 312 246 L 51 246 Z M 51 63 " clip-rule="nonzero"/></clipPath><clipPath id="b873d2d539"><path d="M 84.257812 37.5 L 339.886719 93.789062 L 302.144531 265.183594 L 46.519531 208.894531 Z M 84.257812 37.5 " clip-rule="nonzero"/></clipPath><clipPath id="16fea47070"><path d="M 84.257812 37.5 L 339.886719 93.789062 L 302.144531 265.183594 L 46.519531 208.894531 Z M 84.257812 37.5 " clip-rule="nonzero"/></clipPath><clipPath id="7d5beac61c"><path d="M 168 159 L 187 159 L 187 182 L 168 182 Z M 168 159 " clip-rule="nonzero"/></clipPath><clipPath id="133be65a9d"><path d="M 84.257812 37.5 L 339.886719 93.789062 L 302.144531 265.183594 L 46.519531 208.894531 Z M 84.257812 37.5 " clip-rule="nonzero"/></clipPath><clipPath id="e6ac770fca"><path d="M 84.257812 37.5 L 339.886719 93.789062 L 302.144531 265.183594 L 46.519531 208.894531 Z M 84.257812 37.5 " clip-rule="nonzero"/></clipPath><clipPath id="3489f787f7"><path d="M 186 181 L 210 181 L 210 199 L 186 199 Z M 186 181 " clip-rule="nonzero"/></clipPath><clipPath id="037d2c6119"><path d="M 84.257812 37.5 L 339.886719 93.789062 L 302.144531 265.183594 L 46.519531 208.894531 Z M 84.257812 37.5 " clip-rule="nonzero"/></clipPath><clipPath id="969657e13d"><path d="M 84.257812 37.5 L 339.886719 93.789062 L 302.144531 265.183594 L 46.519531 208.894531 Z M 84.257812 37.5 " clip-rule="nonzero"/></clipPath></defs><g clip-path="url(#88adfaa7f6)"><g clip-path="url(#b873d2d539)"><g clip-path="url(#16fea47070)"><path fill="#ffffff" d="M 311.441406 223.273438 C 311.40625 223.253906 311.320312 223.273438 311.289062 223.308594 C 310.855469 223.722656 310.445312 224.152344 310.007812 224.558594 C 302.320312 231.351562 290.632812 230.875 280.976562 230.476562 C 279.460938 230.046875 282 229.570312 282.277344 229.332031 C 285.296875 228.148438 288.15625 226.589844 290.875 224.820312 C 296.28125 221.367188 300.671875 216.355469 302.527344 210.140625 C 305.421875 200.792969 303.476562 190.257812 296.34375 183.320312 C 292.863281 179.957031 288.398438 177.425781 283.585938 176.679688 C 277.742188 175.761719 271.261719 176.390625 266.0625 179.875 C 261.765625 182.75 263.132812 186.4375 263.390625 186.984375 C 266.425781 182.546875 271.433594 180.832031 276.21875 183.53125 C 281.28125 186.390625 277.519531 194.507812 273.460938 197.308594 C 261.585938 204.957031 246.511719 198.816406 236.050781 191.425781 C 218.945312 179.527344 203.957031 160.460938 204.679688 138.714844 C 205.082031 130.992188 207.828125 123.019531 213.914062 117.953125 C 217.34375 115.269531 221.710938 113.621094 226.105469 113.949219 C 228.828125 114.132812 231.648438 114.238281 234.003906 115.769531 C 236.949219 117.261719 238.101562 120.757812 240.820312 122.5625 C 245.496094 125.671875 249.148438 123.503906 250.726562 122.707031 C 251.4375 122.296875 251.402344 122.34375 251.828125 123.011719 C 256.460938 130.273438 261.679688 128.027344 262.882812 127.425781 C 264.234375 126.742188 265.464844 125.628906 266.402344 126.246094 C 266.730469 126.460938 273.109375 124.667969 272.882812 123.753906 C 272.882812 123.707031 272.757812 123.613281 272.699219 123.617188 C 269.878906 124.15625 266.972656 123.34375 264.421875 122.117188 C 264.148438 122 263.90625 121.945312 263.667969 122.21875 C 261.90625 124.363281 259.617188 124.988281 257.023438 124.007812 C 256.324219 123.769531 255.554688 123.460938 255.207031 122.757812 C 254.542969 121.519531 256.867188 121.042969 256.671875 119.347656 C 256.648438 118.574219 256.929688 115.796875 256.148438 115.492188 C 256.011719 115.484375 255.84375 115.773438 255.714844 115.941406 C 253.65625 118.578125 250.132812 120.546875 246.753906 119.683594 C 244.988281 119.097656 242.523438 118.371094 241.886719 116.425781 C 243.246094 116.566406 244.636719 116.308594 246 116.238281 C 248.113281 116.070312 249.785156 114.332031 250.542969 112.429688 C 252.464844 108.460938 249.652344 98.039062 249.121094 97.714844 C 254.753906 101.195312 254.890625 110.667969 254.96875 110.933594 C 255.023438 111.101562 255.128906 111.109375 255.246094 111.035156 C 256.351562 110.421875 257.988281 109.941406 259.054688 110.847656 C 260.601562 112.101562 260.496094 114.398438 261.640625 115.898438 C 262.90625 117.558594 265.335938 115.582031 264.851562 114.46875 C 263.683594 111.792969 262.378906 109.195312 259.632812 108.4375 C 259.382812 108.394531 259.265625 108.222656 259.238281 107.972656 C 259.039062 106.671875 258.777344 105.367188 258.449219 104.097656 C 255.867188 95.445312 249.792969 88.308594 243.316406 82.226562 C 231.25 71.109375 215.246094 64.882812 198.980469 63.632812 C 165.574219 60.09375 131.441406 72.265625 106.660156 94.699219 C 84.167969 114.527344 56.347656 172.667969 55.980469 174.730469 C 55.953125 175.152344 55.898438 175.109375 56.339844 175.230469 C 57.097656 175.429688 57.882812 175.539062 58.59375 175.910156 C 64.355469 178.207031 69.648438 182.589844 71.523438 188.679688 C 71.617188 189.03125 71.871094 189.484375 71.488281 189.714844 C 71.210938 189.878906 70.871094 189.507812 70.59375 189.328125 C 69.5 188.644531 68.441406 187.90625 67.34375 187.234375 C 63.382812 184.808594 58.78125 183.507812 54.164062 183.179688 C 53.585938 183.1875 52.808594 183.054688 52.40625 183.5625 C 51.988281 184.269531 51.730469 185.046875 51.59375 185.855469 C 51.582031 185.929688 51.632812 186.058594 51.691406 186.089844 C 52.289062 186.417969 52.804688 186.875 53.523438 187.015625 C 54.816406 187.265625 64.984375 190.265625 65.625 196.449219 C 65.75 197.667969 66.148438 198.847656 66.347656 200.054688 C 66.472656 200.804688 66.941406 201.347656 67.5625 201.484375 C 72.125 202.492188 75.261719 205.816406 75.316406 205.875 C 75.625 206.214844 85.214844 207.679688 87.207031 208.359375 C 89.992188 209.28125 92.519531 210.878906 94.53125 213.027344 C 95.035156 213.535156 95.542969 214.226562 96.160156 214.574219 C 96.78125 214.707031 97.382812 215.035156 98.054688 214.757812 C 98.34375 214.640625 98.667969 214.605469 98.972656 214.535156 C 102.992188 213.484375 107.15625 213.601562 111.253906 214.070312 C 118.089844 214.808594 130.71875 224.421875 131.328125 224.5 C 138.976562 224.464844 146.839844 224.652344 154.074219 227.417969 C 159.660156 229.550781 162.722656 233.195312 163.148438 233.738281 C 164.046875 235.03125 164.382812 234.964844 165.878906 234.847656 C 177.859375 233.96875 190.039062 233.597656 201.878906 235.785156 C 206.875 236.910156 211.8125 238.386719 216.386719 240.726562 C 217.945312 241.480469 219.488281 242.261719 220.925781 243.234375 C 221.625 243.710938 224.476562 245.03125 225.164062 245.320312 C 225.3125 245.386719 225.535156 245.3125 225.71875 245.273438 C 235.707031 242.914062 247.371094 241.203125 257.09375 245.308594 C 257.472656 245.515625 257.839844 245.503906 258.261719 245.332031 C 259.425781 244.855469 260.605469 244.417969 261.792969 244 C 264.734375 242.957031 267.761719 242.210938 270.777344 241.425781 C 280.925781 238.527344 307.210938 236.261719 311.007812 225.617188 C 311.273438 224.910156 311.695312 224.011719 311.441406 223.273438 Z M 286.785156 180.453125 C 289.625 181.953125 292.59375 183.5 294.523438 186.09375 C 304.761719 199.863281 298.824219 211.457031 298.550781 212.089844 C 298.597656 209.664062 299.328125 207.078125 299.203125 204.613281 C 299.34375 200.089844 297.558594 195.832031 295.507812 191.882812 C 294.03125 188.90625 291.773438 186.441406 289.535156 184.027344 C 287.941406 182.464844 285.84375 181.316406 284.320312 179.738281 C 285.175781 179.640625 286.03125 180.085938 286.785156 180.453125 Z M 110.019531 108.988281 C 117.59375 92.984375 133.511719 82.527344 149.816406 76.953125 C 122.652344 94.917969 110.667969 126.253906 117.292969 158.0625 C 118.476562 163.859375 120.222656 169.527344 122.429688 175.019531 C 122.464844 175.199219 122.636719 175.53125 122.339844 175.492188 C 118.84375 171.371094 115.722656 166.90625 113.039062 162.210938 C 103.894531 146.246094 101.917969 125.757812 110.019531 108.988281 Z M 99.542969 207.746094 C 97.628906 206.882812 75.300781 199.148438 73.640625 198.199219 C 73.164062 198.09375 71.863281 197.019531 72.914062 196.863281 C 74.210938 196.769531 75.46875 197.121094 76.757812 197.113281 C 85.667969 197.109375 96.546875 198.25 100.199219 207.8125 C 99.980469 208 99.757812 207.839844 99.542969 207.746094 Z M 135.871094 216.433594 C 116.09375 206.75 99.222656 189.96875 91.804688 169.09375 C 91.574219 168.246094 91.25 167.425781 90.972656 166.585938 C 90.972656 166.472656 90.824219 166.222656 90.96875 166.152344 C 91.113281 166.109375 91.203125 166.316406 91.289062 166.414062 C 92.253906 168.144531 93.191406 169.890625 94.175781 171.609375 C 105.390625 190.574219 122.789062 205.226562 141.460938 216.53125 C 145.769531 219.054688 156.605469 224.246094 157.273438 224.925781 C 157.03125 224.910156 156.632812 226.589844 135.871094 216.433594 Z M 268.585938 236.71875 C 267.203125 236.679688 265.816406 236.691406 264.433594 236.648438 C 259.78125 236.488281 255.132812 236.253906 250.5 235.808594 C 235.4375 234.507812 220.488281 231.738281 206.140625 226.925781 C 170.28125 215.378906 132.175781 189.078125 128.675781 148.519531 C 127.550781 126.679688 134.933594 100.605469 149.714844 84.203125 C 163.601562 69.113281 186.347656 65.570312 205.578125 70.582031 C 216.835938 73.378906 228.148438 77.929688 236.703125 86.140625 C 240.507812 89.792969 242.953125 95.722656 242.695312 95.699219 C 242.171875 95.355469 238.023438 90.820312 236.15625 89.222656 C 223.402344 79.332031 204.480469 79.316406 188.988281 82.960938 C 178.277344 85.480469 165.023438 94.628906 166.445312 98.527344 C 163.535156 90.539062 186.730469 77.980469 191.292969 77.609375 C 171.058594 79.261719 156.300781 92.820312 150.75 111.699219 C 147.699219 122.464844 147.460938 133.953125 149.230469 144.964844 C 151.640625 158.734375 157.644531 171.808594 166.472656 182.625 C 169.4375 186.300781 173.003906 189.4375 176.230469 192.859375 C 170.921875 189.53125 166.53125 184.660156 162.300781 180.019531 C 160.003906 177.3125 157.925781 174.421875 155.859375 171.535156 C 155.777344 171.347656 155.453125 171.183594 155.445312 171.488281 C 155.488281 171.636719 157.042969 174.679688 158.597656 177.226562 C 169.878906 195.710938 196.011719 212.746094 199.632812 214.636719 C 212.101562 220.9375 225.378906 225.492188 238.707031 229.582031 C 245.632812 231.65625 252.699219 233.242188 259.792969 234.574219 C 262.875 234.988281 265.972656 235.328125 269.058594 235.710938 C 270.554688 235.894531 272.054688 236.078125 273.554688 236.273438 C 273.859375 236.34375 274.269531 236.273438 274.476562 236.550781 C 272.609375 237.027344 270.527344 236.707031 268.585938 236.71875 Z M 273.902344 220.980469 C 272.003906 221.421875 263.984375 222.199219 263.375 221.945312 C 270.335938 220.433594 277.429688 218.164062 282.671875 213.105469 C 284.609375 211.398438 285.78125 209.089844 287.078125 206.902344 C 287.152344 206.707031 287.550781 206.140625 287.089844 206.175781 C 285.632812 206.878906 284.742188 208.441406 283.421875 209.371094 C 269.007812 220.480469 249.246094 217.304688 232.910156 212.824219 C 209.140625 205.386719 185.179688 194.105469 169.53125 174.054688 C 158.84375 160.734375 152.609375 142.894531 156.296875 125.867188 C 157.988281 119.960938 160.523438 114.144531 164.847656 109.683594 C 167.226562 107.214844 169.726562 104.605469 172.804688 103.054688 C 162.628906 119.320312 165.527344 140.054688 173.847656 156.496094 C 177.058594 163.265625 181.527344 169.375 186.378906 175.066406 C 187.972656 176.945312 189.804688 178.582031 191.550781 180.308594 C 191.632812 180.394531 185.40625 169.957031 183.382812 165.871094 C 172.867188 145.722656 173.496094 115.28125 197.558594 105.632812 C 203.230469 102.953125 220.316406 99.652344 222.90625 102.53125 C 219.589844 103.066406 215.902344 103.652344 212.597656 104.519531 C 205.726562 106.460938 199.921875 110.277344 195.109375 115.476562 C 181.898438 129.554688 186.992188 149.640625 196.082031 164.503906 C 200.707031 172.277344 206.878906 179.035156 213.71875 184.847656 C 231.867188 198.601562 243.433594 203.417969 254.800781 205.589844 C 258.894531 206.21875 263.046875 206.777344 267.195312 206.582031 C 278.875 206.136719 290.355469 199.480469 285.121094 186.308594 C 284.429688 184.570312 287.433594 187.757812 287.609375 188.046875 C 288.652344 189.195312 289.554688 190.453125 290.246094 191.835938 C 297.289062 205.578125 287.195312 217.375 273.902344 220.980469 Z M 273.902344 220.980469 " fill-opacity="1" fill-rule="nonzero"/></g></g></g><g clip-path="url(#7d5beac61c)"><g clip-path="url(#133be65a9d)"><g clip-path="url(#e6ac770fca)"><path fill="#ffffff" d="M 168.308594 159.679688 C 170.144531 166.15625 178.171875 174.300781 186.6875 181.46875 C 176.726562 171.296875 168.511719 160.386719 168.308594 159.679688 Z M 168.308594 159.679688 " fill-opacity="1" fill-rule="nonzero"/></g></g></g><g clip-path="url(#3489f787f7)"><g clip-path="url(#037d2c6119)"><g clip-path="url(#969657e13d)"><path fill="#ffffff" d="M 209.738281 198.601562 C 208.945312 197.996094 197.433594 190.511719 186.6875 181.46875 C 194.28125 189.222656 202.898438 196.550781 209.738281 198.601562 Z M 209.738281 198.601562 " fill-opacity="1" fill-rule="nonzero"/></g></g></g><g fill="#ffaee0" fill-opacity="1"><g transform="translate(11.810759, 278.6452)"><g><path d="M 36.046875 -20.96875 L 31.921875 -19.78125 C 31.171875 -21.726562 30.429688 -24.335938 29.703125 -27.609375 C 28.972656 -30.890625 28.609375 -32.925781 28.609375 -33.71875 C 25.285156 -33.71875 21.929688 -33.226562 18.546875 -32.25 C 15.160156 -31.28125 12.460938 -30.242188 10.453125 -29.140625 C 8.441406 -28.035156 6.71875 -26.453125 5.28125 -24.390625 C 3.84375 -22.335938 3.125 -19.945312 3.125 -17.21875 C 3.125 -14.5 3.816406 -12.097656 5.203125 -10.015625 C 6.597656 -7.941406 8.445312 -6.375 10.75 -5.3125 C 15.175781 -3.226562 19.8125 -2.1875 24.65625 -2.1875 C 29.5 -2.1875 33.671875 -2.695312 37.171875 -3.71875 C 40.671875 -4.738281 43.625 -6.085938 46.03125 -7.765625 C 48.445312 -9.441406 50.648438 -11.5625 52.640625 -14.125 C 54.628906 -16.695312 56.242188 -19.320312 57.484375 -22 C 58.722656 -24.675781 59.9375 -27.738281 61.125 -31.1875 C 62.320312 -34.644531 63.320312 -37.878906 64.125 -40.890625 C 66.289062 -48.898438 68.46875 -55.601562 70.65625 -61 C 72.84375 -66.394531 76.082031 -71.710938 80.375 -76.953125 C 84.664062 -82.203125 89.535156 -86.507812 94.984375 -89.875 C 92.328125 -90.488281 88.941406 -90.796875 84.828125 -90.796875 C 80.710938 -90.796875 76.03125 -89.898438 70.78125 -88.109375 C 65.539062 -86.316406 60.664062 -83.816406 56.15625 -80.609375 C 51.644531 -77.398438 47.609375 -73.738281 44.046875 -69.625 C 40.484375 -65.507812 37.679688 -60.960938 35.640625 -55.984375 C 33.609375 -51.003906 32.59375 -46.015625 32.59375 -41.015625 C 42.320312 -39.023438 49.359375 -35.421875 53.703125 -30.203125 L 50.90625 -27.28125 C 46.351562 -30.25 42.945312 -32 40.6875 -32.53125 C 38.425781 -33.0625 37.078125 -33.367188 36.640625 -33.453125 C 34.609375 -33.722656 33.210938 -33.859375 32.453125 -33.859375 C 32.984375 -30.578125 33.9375 -26.945312 35.3125 -22.96875 Z M 121.53125 -99.5 L 122.859375 -96.375 C 118.785156 -95.625 115.003906 -94.519531 111.515625 -93.0625 L 109.71875 -92.328125 C 112.90625 -90.734375 115.4375 -88.5625 117.3125 -85.8125 C 119.195312 -83.070312 120.140625 -80.5625 120.140625 -78.28125 C 120.140625 -76.007812 119.941406 -74.097656 119.546875 -72.546875 C 119.148438 -70.992188 118.660156 -69.597656 118.078125 -68.359375 C 117.503906 -67.128906 116.738281 -65.835938 115.78125 -64.484375 C 114.832031 -63.128906 113.957031 -62 113.15625 -61.09375 C 112.363281 -60.1875 111.378906 -59.171875 110.203125 -58.046875 C 109.035156 -56.921875 108.125 -56.066406 107.46875 -55.484375 C 106.269531 -54.515625 104.785156 -53.320312 103.015625 -51.90625 C 109.335938 -49.289062 114.160156 -46.203125 117.484375 -42.640625 C 120.804688 -39.078125 122.46875 -34.628906 122.46875 -29.296875 C 122.46875 -23.972656 120.863281 -18.8125 117.65625 -13.8125 C 114.445312 -8.8125 110.195312 -4.828125 104.90625 -1.859375 C 99.613281 1.109375 94.003906 2.59375 88.078125 2.59375 C 81.523438 2.59375 76.503906 0.753906 73.015625 -2.921875 C 71.109375 -4.910156 70.15625 -7.234375 70.15625 -9.890625 C 70.15625 -12.546875 70.960938 -14.691406 72.578125 -16.328125 C 74.191406 -17.960938 76.148438 -18.78125 78.453125 -18.78125 C 80.753906 -18.78125 82.566406 -18.203125 83.890625 -17.046875 C 85.222656 -15.898438 85.890625 -14.5625 85.890625 -13.03125 C 85.890625 -11.507812 85.625 -10.316406 85.09375 -9.453125 C 84.5625 -8.597656 83.929688 -7.925781 83.203125 -7.4375 C 82.472656 -6.945312 81.707031 -6.546875 80.90625 -6.234375 C 79.539062 -5.703125 78.613281 -5.4375 78.125 -5.4375 C 78.125 -3.488281 80.535156 -2.273438 85.359375 -1.796875 C 86.203125 -1.703125 86.976562 -1.65625 87.6875 -1.65625 C 93.832031 -1.65625 98.984375 -3.976562 103.140625 -8.625 C 107.304688 -13.269531 109.390625 -18.691406 109.390625 -24.890625 C 109.390625 -27.984375 108.703125 -30.847656 107.328125 -33.484375 C 105.953125 -36.117188 104.269531 -38.234375 102.28125 -39.828125 C 100.289062 -41.421875 98.3125 -42.78125 96.34375 -43.90625 C 94.375 -45.03125 92.703125 -45.898438 91.328125 -46.515625 C 89.960938 -47.140625 89.28125 -47.550781 89.28125 -47.75 C 89.28125 -47.957031 89.941406 -48.503906 91.265625 -49.390625 C 92.597656 -50.273438 94.222656 -51.4375 96.140625 -52.875 C 98.066406 -54.3125 99.976562 -55.957031 101.875 -57.8125 C 103.78125 -59.664062 105.394531 -61.929688 106.71875 -64.609375 C 108.050781 -67.285156 108.71875 -69.972656 108.71875 -72.671875 C 108.71875 -75.378906 107.960938 -78.269531 106.453125 -81.34375 C 104.953125 -84.414062 102.765625 -86.570312 99.890625 -87.8125 C 91.578125 -82.675781 85.582031 -74.734375 81.90625 -63.984375 C 80.3125 -59.378906 79.117188 -55.242188 78.328125 -51.578125 C 76.378906 -42.328125 74.960938 -35.921875 74.078125 -32.359375 C 73.191406 -28.796875 71.429688 -24.84375 68.796875 -20.5 C 66.160156 -16.164062 62.894531 -12.273438 59 -8.828125 C 55.113281 -5.378906 50.378906 -2.65625 44.796875 -0.65625 C 39.222656 1.332031 33.160156 2.328125 26.609375 2.328125 C 17.628906 2.328125 10.332031 0.269531 4.71875 -3.84375 C 0.289062 -7.125 -1.921875 -11.679688 -1.921875 -17.515625 C -1.921875 -21.460938 -0.972656 -25.003906 0.921875 -28.140625 C 2.828125 -31.285156 5.304688 -33.765625 8.359375 -35.578125 C 14.554688 -39.296875 21.304688 -41.15625 28.609375 -41.15625 C 28.609375 -48.320312 30.289062 -55.28125 33.65625 -62.03125 C 37.019531 -68.78125 41.476562 -74.597656 47.03125 -79.484375 C 52.582031 -84.367188 59.082031 -88.296875 66.53125 -91.265625 C 73.988281 -94.234375 81.660156 -95.71875 89.546875 -95.71875 C 92.285156 -95.71875 96.726562 -95.335938 102.875 -94.578125 C 111.238281 -97.585938 117.457031 -99.226562 121.53125 -99.5 Z M 121.53125 -99.5 "/></g></g></g><g fill="#ffaee0" fill-opacity="1"><g transform="translate(140.104759, 278.6452)"><g><path d="M 12.21875 -13.078125 C 12.476562 -7.984375 15.90625 -5.4375 22.5 -5.4375 C 24.9375 -5.4375 27.46875 -6.132812 30.09375 -7.53125 C 32.726562 -8.925781 34.863281 -10.578125 36.5 -12.484375 L 39.359375 -10.625 C 35.691406 -4.46875 29.828125 -0.707031 21.765625 0.65625 C 19.992188 0.925781 18.289062 1.0625 16.65625 1.0625 C 11.875 1.0625 7.890625 -0.519531 4.703125 -3.6875 C 1.523438 -6.851562 -0.0625 -10.710938 -0.0625 -15.265625 C -0.0625 -19.828125 1.328125 -24.039062 4.109375 -27.90625 C 6.898438 -31.78125 10.382812 -34.78125 14.5625 -36.90625 C 18.75 -39.03125 22.878906 -40.09375 26.953125 -40.09375 C 31.023438 -40.09375 34.550781 -39.160156 37.53125 -37.296875 C 40.519531 -35.441406 42.046875 -32.941406 42.109375 -29.796875 C 42.179688 -26.660156 41.265625 -23.953125 39.359375 -21.671875 C 37.453125 -19.390625 35.039062 -17.65625 32.125 -16.46875 C 26.332031 -14.113281 20.644531 -12.9375 15.0625 -12.9375 Z M 11.8125 -16.734375 C 16.726562 -16.910156 20.675781 -17.691406 23.65625 -19.078125 C 26.644531 -20.472656 28.722656 -22.066406 29.890625 -23.859375 C 31.066406 -25.648438 31.65625 -27.53125 31.65625 -29.5 C 31.65625 -31.46875 31.144531 -32.925781 30.125 -33.875 C 29.113281 -34.832031 28.03125 -35.3125 26.875 -35.3125 C 24.050781 -35.3125 21.453125 -34.328125 19.078125 -32.359375 C 16.710938 -30.390625 14.910156 -28 13.671875 -25.1875 C 12.429688 -22.375 11.8125 -19.554688 11.8125 -16.734375 Z M 11.8125 -16.734375 "/></g></g></g><g fill="#ffaee0" fill-opacity="1"><g transform="translate(186.962263, 278.6452)"><g><path d="M 24.6875 -88.28125 L 35.4375 -88.28125 C 33.539062 -85.007812 30.625 -77.738281 26.6875 -66.46875 C 22.75 -55.207031 19.148438 -43.878906 15.890625 -32.484375 C 12.640625 -21.097656 11.015625 -14.128906 11.015625 -11.578125 C 11.015625 -9.035156 11.328125 -7.765625 11.953125 -7.765625 C 13.804688 -7.765625 16.703125 -10.578125 20.640625 -16.203125 L 23.4375 -13.546875 C 21.488281 -10.179688 19.382812 -7.347656 17.125 -5.046875 C 13.144531 -0.972656 9.914062 1.0625 7.4375 1.0625 C 2.914062 1.0625 0.65625 -1.660156 0.65625 -7.109375 C 0.65625 -15.203125 3.34375 -27.960938 8.71875 -45.390625 C 14.101562 -62.828125 19.425781 -77.125 24.6875 -88.28125 Z M 24.6875 -88.28125 "/></g></g></g><g fill="#ffaee0" fill-opacity="1"><g transform="translate(213.908647, 278.6452)"><g><path d="M 12.21875 -13.078125 C 12.476562 -7.984375 15.90625 -5.4375 22.5 -5.4375 C 24.9375 -5.4375 27.46875 -6.132812 30.09375 -7.53125 C 32.726562 -8.925781 34.863281 -10.578125 36.5 -12.484375 L 39.359375 -10.625 C 35.691406 -4.46875 29.828125 -0.707031 21.765625 0.65625 C 19.992188 0.925781 18.289062 1.0625 16.65625 1.0625 C 11.875 1.0625 7.890625 -0.519531 4.703125 -3.6875 C 1.523438 -6.851562 -0.0625 -10.710938 -0.0625 -15.265625 C -0.0625 -19.828125 1.328125 -24.039062 4.109375 -27.90625 C 6.898438 -31.78125 10.382812 -34.78125 14.5625 -36.90625 C 18.75 -39.03125 22.878906 -40.09375 26.953125 -40.09375 C 31.023438 -40.09375 34.550781 -39.160156 37.53125 -37.296875 C 40.519531 -35.441406 42.046875 -32.941406 42.109375 -29.796875 C 42.179688 -26.660156 41.265625 -23.953125 39.359375 -21.671875 C 37.453125 -19.390625 35.039062 -17.65625 32.125 -16.46875 C 26.332031 -14.113281 20.644531 -12.9375 15.0625 -12.9375 Z M 11.8125 -16.734375 C 16.726562 -16.910156 20.675781 -17.691406 23.65625 -19.078125 C 26.644531 -20.472656 28.722656 -22.066406 29.890625 -23.859375 C 31.066406 -25.648438 31.65625 -27.53125 31.65625 -29.5 C 31.65625 -31.46875 31.144531 -32.925781 30.125 -33.875 C 29.113281 -34.832031 28.03125 -35.3125 26.875 -35.3125 C 24.050781 -35.3125 21.453125 -34.328125 19.078125 -32.359375 C 16.710938 -30.390625 14.910156 -28 13.671875 -25.1875 C 12.429688 -22.375 11.8125 -19.554688 11.8125 -16.734375 Z M 11.8125 -16.734375 "/></g></g></g><g fill="#ffaee0" fill-opacity="1"><g transform="translate(260.766152, 278.6452)"><g><path d="M 7.375 -3.65625 C 6.175781 -3.070312 4.359375 -1.8125 1.921875 0.125 L -2.390625 -3.25 C -2.078125 -4.132812 2.320312 -8.898438 10.8125 -17.546875 C 19.3125 -26.203125 23.875 -30.863281 24.5 -31.53125 C 18.476562 -34.539062 14.03125 -36.046875 11.15625 -36.046875 L 10.484375 -35.90625 C 12.390625 -34.007812 13.34375 -32.25 13.34375 -30.625 C 13.34375 -29.007812 12.65625 -27.738281 11.28125 -26.8125 C 9.90625 -25.882812 8.390625 -25.421875 6.734375 -25.421875 C 5.078125 -25.421875 3.660156 -25.90625 2.484375 -26.875 C 1.316406 -27.851562 0.734375 -29.179688 0.734375 -30.859375 C 0.734375 -34.003906 1.867188 -36.414062 4.140625 -38.09375 C 6.421875 -39.78125 8.941406 -40.625 11.703125 -40.625 C 14.472656 -40.625 18.046875 -39.925781 22.421875 -38.53125 C 26.804688 -37.132812 30.023438 -36.4375 32.078125 -36.4375 C 34.140625 -36.4375 36.566406 -36.925781 39.359375 -37.90625 L 42.078125 -33.984375 C 40.265625 -30.441406 37.675781 -28.671875 34.3125 -28.671875 C 33.738281 -28.671875 33.007812 -28.894531 32.125 -29.34375 L 12.8125 -8.6875 C 15.15625 -8.6875 18.257812 -7.800781 22.125 -6.03125 C 26 -4.269531 29.023438 -3.34375 31.203125 -3.25 C 29.734375 -4.488281 29 -5.984375 29 -7.734375 C 29 -9.484375 29.640625 -10.875 30.921875 -11.90625 C 32.210938 -12.945312 33.617188 -13.46875 35.140625 -13.46875 C 36.671875 -13.46875 38.019531 -12.90625 39.1875 -11.78125 C 40.363281 -10.65625 40.953125 -8.992188 40.953125 -6.796875 C 40.953125 -4.609375 40.019531 -2.75 38.15625 -1.21875 C 36.300781 0.300781 33.847656 1.0625 30.796875 1.0625 C 24.691406 1.0625 16.882812 -0.507812 7.375 -3.65625 Z M 7.375 -3.65625 "/></g></g></g><g fill="#ffaee0" fill-opacity="1"><g transform="translate(306.69447, 278.6452)"><g><path d="M 36.703125 -38.625 L 47.0625 -38.625 L 41.8125 -18.78125 C 40.976562 -16 40.5625 -13.46875 40.5625 -11.1875 C 40.5625 -8.90625 40.957031 -7.765625 41.75 -7.765625 C 42.539062 -7.765625 43.632812 -8.460938 45.03125 -9.859375 C 46.425781 -11.253906 47.613281 -12.660156 48.59375 -14.078125 L 50.109375 -16.203125 L 52.96875 -13.546875 C 51.507812 -10.710938 49.648438 -8.125 47.390625 -5.78125 C 43.015625 -1.21875 39.207031 1.0625 35.96875 1.0625 C 32.164062 1.0625 30.265625 -1.878906 30.265625 -7.765625 C 30.265625 -8.734375 30.3125 -9.460938 30.40625 -9.953125 C 29.738281 -7.703125 28.472656 -5.710938 26.609375 -3.984375 C 23.078125 -0.617188 19.085938 1.0625 14.640625 1.0625 C 10.191406 1.0625 6.628906 -0.453125 3.953125 -3.484375 C 1.273438 -6.515625 -0.0625 -10.3125 -0.0625 -14.875 C -0.0625 -21.945312 2.234375 -27.914062 6.828125 -32.78125 C 11.429688 -37.65625 16.832031 -40.09375 23.03125 -40.09375 C 26.125 -40.09375 28.6875 -39.238281 30.71875 -37.53125 C 32.757812 -35.832031 34.09375 -33.609375 34.71875 -30.859375 Z M 25.625 -34.375 C 23.050781 -34.375 20.644531 -33.300781 18.40625 -31.15625 C 16.175781 -29.007812 14.460938 -26.421875 13.265625 -23.390625 C 12.078125 -20.359375 11.484375 -17.40625 11.484375 -14.53125 C 11.484375 -11.65625 12.113281 -9.332031 13.375 -7.5625 C 14.632812 -5.789062 16.582031 -4.90625 19.21875 -4.90625 C 21.851562 -4.90625 24.226562 -6.101562 26.34375 -8.5 C 30.375 -13.101562 32.390625 -18.566406 32.390625 -24.890625 C 32.390625 -31.210938 30.132812 -34.375 25.625 -34.375 Z M 25.625 -34.375 "/></g></g></g><g fill="#ffaee0" fill-opacity="1"><g transform="translate(303.526451, 219.925724)"><g><path d="M 15 -0.828125 L 15 -1.65625 C 14.976562 -1.570312 14.84375 -1.421875 14.59375 -1.203125 C 14.34375 -0.984375 13.988281 -0.753906 13.53125 -0.515625 C 13.082031 -0.285156 12.539062 -0.0820312 11.90625 0.09375 C 11.269531 0.28125 10.550781 0.375 9.75 0.375 C 8.59375 0.375 7.503906 0.160156 6.484375 -0.265625 C 5.472656 -0.691406 4.59375 -1.273438 3.84375 -2.015625 C 3.101562 -2.765625 2.519531 -3.632812 2.09375 -4.625 C 1.664062 -5.625 1.453125 -6.671875 1.453125 -7.765625 C 1.453125 -8.867188 1.664062 -9.910156 2.09375 -10.890625 C 2.519531 -11.867188 3.101562 -12.726562 3.84375 -13.46875 C 4.59375 -14.21875 5.472656 -14.804688 6.484375 -15.234375 C 7.503906 -15.660156 8.59375 -15.875 9.75 -15.875 C 10.445312 -15.875 11.101562 -15.773438 11.71875 -15.578125 C 12.34375 -15.390625 12.890625 -15.171875 13.359375 -14.921875 C 13.828125 -14.671875 14.203125 -14.421875 14.484375 -14.171875 C 14.773438 -13.929688 14.945312 -13.769531 15 -13.6875 C 14.945312 -13.90625 14.878906 -14.117188 14.796875 -14.328125 C 14.710938 -14.535156 14.644531 -14.75 14.59375 -14.96875 L 14.59375 -27.734375 L 11.859375 -27.734375 L 11.859375 -31 L 18.03125 -31 L 18.03125 -3.265625 L 21.171875 -3.265625 L 21.171875 0 L 15 0 Z M 4.921875 -7.765625 C 4.921875 -6.421875 5.367188 -5.285156 6.265625 -4.359375 C 7.160156 -3.441406 8.320312 -2.984375 9.75 -2.984375 C 11.1875 -2.984375 12.351562 -3.441406 13.25 -4.359375 C 14.144531 -5.285156 14.59375 -6.421875 14.59375 -7.765625 C 14.59375 -9.148438 14.144531 -10.289062 13.25 -11.1875 C 12.351562 -12.082031 11.1875 -12.53125 9.75 -12.53125 C 8.320312 -12.53125 7.160156 -12.082031 6.265625 -11.1875 C 5.367188 -10.289062 4.921875 -9.148438 4.921875 -7.765625 Z M 4.921875 -7.765625 "/></g></g></g><g fill="#ffaee0" fill-opacity="1"><g transform="translate(326.132534, 219.925724)"><g><path d="M 9.71875 -12.53125 C 8.3125 -12.53125 7.164062 -12.109375 6.28125 -11.265625 C 5.40625 -10.421875 4.9375 -9.367188 4.875 -8.109375 C 6.175781 -8.578125 7.46875 -9.050781 8.75 -9.53125 C 10.03125 -10.007812 11.316406 -10.484375 12.609375 -10.953125 C 12.222656 -11.421875 11.785156 -11.800781 11.296875 -12.09375 C 10.816406 -12.382812 10.289062 -12.53125 9.71875 -12.53125 Z M 17 -9.015625 C 15.125 -8.328125 13.253906 -7.632812 11.390625 -6.9375 C 9.523438 -6.25 7.65625 -5.5625 5.78125 -4.875 C 6.195312 -4.300781 6.742188 -3.84375 7.421875 -3.5 C 8.097656 -3.15625 8.863281 -2.984375 9.71875 -2.984375 C 10.988281 -2.984375 12.035156 -3.421875 12.859375 -4.296875 L 14.96875 -1.8125 C 14.28125 -1.125 13.492188 -0.585938 12.609375 -0.203125 C 11.722656 0.179688 10.757812 0.375 9.71875 0.375 C 8.5625 0.375 7.476562 0.160156 6.46875 -0.265625 C 5.46875 -0.691406 4.59375 -1.273438 3.84375 -2.015625 C 3.101562 -2.765625 2.519531 -3.628906 2.09375 -4.609375 C 1.664062 -5.585938 1.453125 -6.640625 1.453125 -7.765625 C 1.453125 -8.867188 1.664062 -9.914062 2.09375 -10.90625 C 2.519531 -11.90625 3.101562 -12.769531 3.84375 -13.5 C 4.59375 -14.226562 5.46875 -14.804688 6.46875 -15.234375 C 7.476562 -15.660156 8.5625 -15.875 9.71875 -15.875 C 10.570312 -15.875 11.390625 -15.703125 12.171875 -15.359375 C 12.960938 -15.015625 13.664062 -14.535156 14.28125 -13.921875 C 14.90625 -13.316406 15.453125 -12.59375 15.921875 -11.75 C 16.390625 -10.914062 16.75 -10.003906 17 -9.015625 Z M 17 -9.015625 "/></g></g></g></svg>